<svg width="24" height="24" viewBox="0 0 24 24" fill="none" xmlns="http://www.w3.org/2000/svg">
<g clip-path="url(#clip0_1109_18571)">
<circle cx="12" cy="12" r="12" fill="black"/>
<path d="M20.034 10.5039V13.8677C20.034 14.3126 20.2298 14.4817 20.5412 14.4817C20.8527 14.4817 21.0485 14.3126 21.0485 13.8677V10.5039C21.0485 10.059 20.8527 9.88988 20.5412 9.88988C20.2298 9.88988 20.034 10.059 20.034 10.5039ZM19.0551 13.8054V10.5662C19.0551 9.56953 19.5801 9 20.5412 9C21.5023 9 22.0273 9.56953 22.0273 10.5662V13.8054C22.0273 14.8021 21.5023 15.3716 20.5412 15.3716C19.5801 15.3716 19.0551 14.8021 19.0551 13.8054Z" fill="white"/>
<path d="M18.5982 15.3005H17.6015C17.5482 15.1403 17.5126 15.0424 17.5126 14.5352V13.5563C17.5126 12.9779 17.3168 12.7643 16.8718 12.7643H16.5337V15.3005H15.5548V9.07129H17.032C18.0465 9.07129 18.4825 9.54293 18.4825 10.504V10.9934C18.4825 11.6342 18.2779 12.0524 17.8418 12.2571C18.3313 12.4618 18.4914 12.9334 18.4914 13.583V14.5441C18.4914 14.8466 18.5003 15.0691 18.5982 15.3005ZM17.0053 9.96117H16.5337V11.8744H16.9163C17.2812 11.8744 17.5037 11.7142 17.5037 11.2159V10.6019C17.5037 10.1569 17.3524 9.96117 17.0053 9.96117Z" fill="white"/>
<path d="M12.9253 10.5039V13.8677C12.9253 14.3126 13.1211 14.4817 13.4326 14.4817C13.744 14.4817 13.9398 14.3126 13.9398 13.8677V10.5039C13.9398 10.059 13.744 9.88988 13.4326 9.88988C13.1211 9.88988 12.9253 10.059 12.9253 10.5039ZM11.9465 13.8054V10.5662C11.9465 9.56953 12.4715 9 13.4326 9C14.3937 9 14.9187 9.56953 14.9187 10.5662V13.8054C14.9187 14.8021 14.3937 15.3716 13.4326 15.3716C12.4715 15.3716 11.9465 14.8021 11.9465 13.8054Z" fill="white"/>
<path d="M8.67071 9.07129H11.4472V9.94338L9.5873 14.4106H11.4472V15.3005H8.58173V14.4284L10.4416 9.96117H8.67071V9.07129Z" fill="white"/>
<path d="M6.4356 9.96117V11.6965H7.77933V12.5863H6.4356V14.4106H8.12638V15.3005H5.45673V9.07129H8.12638V9.96117H6.4356Z" fill="white"/>
<path d="M2 9.96117V9.07129H5.02561V9.96117H4.00224V15.3005H3.02337V9.96117H2Z" fill="white"/>
</g>
<defs>
<clipPath id="clip0_1109_18571">
<rect width="24" height="24" fill="white"/>
</clipPath>
</defs>
</svg>
